<svg xmlns="http://www.w3.org/2000/svg" xmlns:xlink="http://www.w3.org/1999/xlink" width="320" zoomAndPan="magnify" viewBox="0 0 240 239.999995" height="320" preserveAspectRatio="xMidYMid meet" version="1.0"><defs><clipPath id="0cb151b4ee"><path d="M 0.890625 0.890625 L 219.109375 0.890625 L 219.109375 219.109375 L 0.890625 219.109375 Z M 0.890625 0.890625 " clip-rule="nonzero"/></clipPath><clipPath id="751a558fd3"><path d="M 110 0.890625 C 49.738281 0.890625 0.890625 49.738281 0.890625 110 C 0.890625 170.261719 49.738281 219.109375 110 219.109375 C 170.261719 219.109375 219.109375 170.261719 219.109375 110 C 219.109375 49.738281 170.261719 0.890625 110 0.890625 Z M 110 0.890625 " clip-rule="nonzero"/></clipPath><clipPath id="50d723368c"><path d="M 0.890625 0.890625 L 219.109375 0.890625 L 219.109375 219.109375 L 0.890625 219.109375 Z M 0.890625 0.890625 " clip-rule="nonzero"/></clipPath><clipPath id="227615dfcf"><path d="M 110 0.890625 C 49.738281 0.890625 0.890625 49.738281 0.890625 110 C 0.890625 170.261719 49.738281 219.109375 110 219.109375 C 170.261719 219.109375 219.109375 170.261719 219.109375 110 C 219.109375 49.738281 170.261719 0.890625 110 0.890625 Z M 110 0.890625 " clip-rule="nonzero"/></clipPath><radialGradient gradientTransform="matrix(1, 0, 0, 1, 0.889114, 0.889111)" gradientUnits="userSpaceOnUse" r="308.612488" cx="0" id="9ad6985c75" cy="0" fx="0" fy="0"><stop stop-opacity="1" stop-color="rgb(0.585938%, 1.171875%, 13.648987%)" offset="0"/><stop stop-opacity="1" stop-color="rgb(1.757812%, 1.158142%, 13.487244%)" offset="0.00390625"/><stop stop-opacity="1" stop-color="rgb(2.931213%, 1.144409%, 13.3255%)" offset="0.0078125"/><stop stop-opacity="1" stop-color="rgb(4.104614%, 1.130676%, 13.165283%)" offset="0.0117188"/><stop stop-opacity="1" stop-color="rgb(5.278015%, 1.116943%, 13.00354%)" offset="0.015625"/><stop stop-opacity="1" stop-color="rgb(6.44989%, 1.101685%, 12.843323%)" offset="0.0195312"/><stop stop-opacity="1" stop-color="rgb(7.623291%, 1.087952%, 12.68158%)" offset="0.0234375"/><stop stop-opacity="1" stop-color="rgb(8.796692%, 1.074219%, 12.521362%)" offset="0.0273438"/><stop stop-opacity="1" stop-color="rgb(9.970093%, 1.060486%, 12.359619%)" offset="0.03125"/><stop stop-opacity="1" stop-color="rgb(11.141968%, 1.046753%, 12.199402%)" offset="0.0351562"/><stop stop-opacity="1" stop-color="rgb(12.315369%, 1.03302%, 12.037659%)" offset="0.0390625"/><stop stop-opacity="1" stop-color="rgb(13.48877%, 1.019287%, 11.877441%)" offset="0.0429688"/><stop stop-opacity="1" stop-color="rgb(14.66217%, 1.005554%, 11.715698%)" offset="0.046875"/><stop stop-opacity="1" stop-color="rgb(15.834045%, 0.991821%, 11.553955%)" offset="0.0507812"/><stop stop-opacity="1" stop-color="rgb(17.007446%, 0.978088%, 11.393738%)" offset="0.0546875"/><stop stop-opacity="1" stop-color="rgb(18.180847%, 0.964355%, 11.231995%)" offset="0.0585938"/><stop stop-opacity="1" stop-color="rgb(19.354248%, 0.950623%, 11.071777%)" offset="0.0625"/><stop stop-opacity="1" stop-color="rgb(20.527649%, 0.93689%, 10.910034%)" offset="0.0664062"/><stop stop-opacity="1" stop-color="rgb(21.699524%, 0.923157%, 10.749817%)" offset="0.0703125"/><stop stop-opacity="1" stop-color="rgb(22.872925%, 0.907898%, 10.588074%)" offset="0.0742188"/><stop stop-opacity="1" stop-color="rgb(24.046326%, 0.894165%, 10.427856%)" offset="0.078125"/><stop stop-opacity="1" stop-color="rgb(25.219727%, 0.880432%, 10.266113%)" offset="0.0820312"/><stop stop-opacity="1" stop-color="rgb(26.391602%, 0.866699%, 10.10437%)" offset="0.0859375"/><stop stop-opacity="1" stop-color="rgb(27.565002%, 0.852966%, 9.944153%)" offset="0.0898438"/><stop stop-opacity="1" stop-color="rgb(28.738403%, 0.839233%, 9.78241%)" offset="0.09375"/><stop stop-opacity="1" stop-color="rgb(29.911804%, 0.8255%, 9.622192%)" offset="0.0976562"/><stop stop-opacity="1" stop-color="rgb(31.083679%, 0.811768%, 9.460449%)" offset="0.101562"/><stop stop-opacity="1" stop-color="rgb(32.25708%, 0.798035%, 9.300232%)" offset="0.105469"/><stop stop-opacity="1" stop-color="rgb(33.430481%, 0.784302%, 9.138489%)" offset="0.109375"/><stop stop-opacity="1" stop-color="rgb(34.603882%, 0.770569%, 8.978271%)" offset="0.113281"/><stop stop-opacity="1" stop-color="rgb(35.777283%, 0.756836%, 8.816528%)" offset="0.117188"/><stop stop-opacity="1" stop-color="rgb(36.949158%, 0.743103%, 8.654785%)" offset="0.121094"/><stop stop-opacity="1" stop-color="rgb(38.122559%, 0.72937%, 8.494568%)" offset="0.125"/><stop stop-opacity="1" stop-color="rgb(39.295959%, 0.714111%, 8.332825%)" offset="0.128906"/><stop stop-opacity="1" stop-color="rgb(40.46936%, 0.700378%, 8.172607%)" offset="0.132812"/><stop stop-opacity="1" stop-color="rgb(41.641235%, 0.686646%, 8.010864%)" offset="0.136719"/><stop stop-opacity="1" stop-color="rgb(42.814636%, 0.672913%, 7.850647%)" offset="0.140625"/><stop stop-opacity="1" stop-color="rgb(43.988037%, 0.65918%, 7.688904%)" offset="0.144531"/><stop stop-opacity="1" stop-color="rgb(45.161438%, 0.645447%, 7.528687%)" offset="0.148438"/><stop stop-opacity="1" stop-color="rgb(46.333313%, 0.631714%, 7.366943%)" offset="0.152344"/><stop stop-opacity="1" stop-color="rgb(47.506714%, 0.617981%, 7.206726%)" offset="0.15625"/><stop stop-opacity="1" stop-color="rgb(48.680115%, 0.604248%, 7.044983%)" offset="0.160156"/><stop stop-opacity="1" stop-color="rgb(49.853516%, 0.590515%, 6.88324%)" offset="0.164062"/><stop stop-opacity="1" stop-color="rgb(51.026917%, 0.576782%, 6.723022%)" offset="0.167969"/><stop stop-opacity="1" stop-color="rgb(52.198792%, 0.563049%, 6.561279%)" offset="0.171875"/><stop stop-opacity="1" stop-color="rgb(53.372192%, 0.549316%, 6.401062%)" offset="0.175781"/><stop stop-opacity="1" stop-color="rgb(54.545593%, 0.535583%, 6.239319%)" offset="0.179688"/><stop stop-opacity="1" stop-color="rgb(55.718994%, 0.520325%, 6.079102%)" offset="0.183594"/><stop stop-opacity="1" stop-color="rgb(56.890869%, 0.506592%, 5.917358%)" offset="0.1875"/><stop stop-opacity="1" stop-color="rgb(58.06427%, 0.492859%, 5.757141%)" offset="0.191406"/><stop stop-opacity="1" stop-color="rgb(59.237671%, 0.479126%, 5.595398%)" offset="0.195312"/><stop stop-opacity="1" stop-color="rgb(60.411072%, 0.465393%, 5.433655%)" offset="0.199219"/><stop stop-opacity="1" stop-color="rgb(61.582947%, 0.45166%, 5.273438%)" offset="0.203125"/><stop stop-opacity="1" stop-color="rgb(62.756348%, 0.437927%, 5.111694%)" offset="0.207031"/><stop stop-opacity="1" stop-color="rgb(63.929749%, 0.424194%, 4.951477%)" offset="0.210938"/><stop stop-opacity="1" stop-color="rgb(65.103149%, 0.410461%, 4.789734%)" offset="0.214844"/><stop stop-opacity="1" stop-color="rgb(66.27655%, 0.396729%, 4.629517%)" offset="0.21875"/><stop stop-opacity="1" stop-color="rgb(67.448425%, 0.382996%, 4.467773%)" offset="0.222656"/><stop stop-opacity="1" stop-color="rgb(68.621826%, 0.369263%, 4.307556%)" offset="0.226562"/><stop stop-opacity="1" stop-color="rgb(69.795227%, 0.35553%, 4.145813%)" offset="0.230469"/><stop stop-opacity="1" stop-color="rgb(70.968628%, 0.341797%, 3.98407%)" offset="0.234375"/><stop stop-opacity="1" stop-color="rgb(72.140503%, 0.326538%, 3.823853%)" offset="0.238281"/><stop stop-opacity="1" stop-color="rgb(73.313904%, 0.312805%, 3.662109%)" offset="0.242188"/><stop stop-opacity="1" stop-color="rgb(74.487305%, 0.299072%, 3.501892%)" offset="0.246094"/><stop stop-opacity="1" stop-color="rgb(75.660706%, 0.285339%, 3.340149%)" offset="0.25"/><stop stop-opacity="1" stop-color="rgb(76.832581%, 0.271606%, 3.179932%)" offset="0.253906"/><stop stop-opacity="1" stop-color="rgb(78.005981%, 0.257874%, 3.018188%)" offset="0.257812"/><stop stop-opacity="1" stop-color="rgb(79.179382%, 0.244141%, 2.857971%)" offset="0.261719"/><stop stop-opacity="1" stop-color="rgb(80.352783%, 0.230408%, 2.696228%)" offset="0.265625"/><stop stop-opacity="1" stop-color="rgb(81.526184%, 0.216675%, 2.536011%)" offset="0.269531"/><stop stop-opacity="1" stop-color="rgb(82.698059%, 0.202942%, 2.374268%)" offset="0.273438"/><stop stop-opacity="1" stop-color="rgb(83.87146%, 0.189209%, 2.212524%)" offset="0.277344"/><stop stop-opacity="1" stop-color="rgb(85.044861%, 0.175476%, 2.052307%)" offset="0.28125"/><stop stop-opacity="1" stop-color="rgb(86.218262%, 0.161743%, 1.890564%)" offset="0.285156"/><stop stop-opacity="1" stop-color="rgb(87.390137%, 0.14801%, 1.730347%)" offset="0.289062"/><stop stop-opacity="1" stop-color="rgb(88.563538%, 0.132751%, 1.568604%)" offset="0.292969"/><stop stop-opacity="1" stop-color="rgb(89.736938%, 0.119019%, 1.408386%)" offset="0.296875"/><stop stop-opacity="1" stop-color="rgb(90.910339%, 0.105286%, 1.246643%)" offset="0.300781"/><stop stop-opacity="1" stop-color="rgb(92.082214%, 0.0915527%, 1.086426%)" offset="0.304688"/><stop stop-opacity="1" stop-color="rgb(93.255615%, 0.0778198%, 0.924683%)" offset="0.308594"/><stop stop-opacity="1" stop-color="rgb(94.429016%, 0.0640869%, 0.762939%)" offset="0.3125"/><stop stop-opacity="1" stop-color="rgb(95.602417%, 0.050354%, 0.602722%)" offset="0.316406"/><stop stop-opacity="1" stop-color="rgb(96.775818%, 0.0366211%, 0.440979%)" offset="0.320312"/><stop stop-opacity="1" stop-color="rgb(97.947693%, 0.0228882%, 0.280762%)" offset="0.324219"/><stop stop-opacity="1" stop-color="rgb(99.121094%, 0.00915527%, 0.119019%)" offset="0.328125"/><stop stop-opacity="1" stop-color="rgb(99.6521%, 0.00152588%, 0.0198364%)" offset="0.332031"/><stop stop-opacity="1" stop-color="rgb(99.327087%, 0%, 0%)" offset="0.335938"/><stop stop-opacity="1" stop-color="rgb(98.789978%, 0%, 0%)" offset="0.339844"/><stop stop-opacity="1" stop-color="rgb(98.254395%, 0%, 0%)" offset="0.34375"/><stop stop-opacity="1" stop-color="rgb(97.717285%, 0%, 0%)" offset="0.347656"/><stop stop-opacity="1" stop-color="rgb(97.180176%, 0%, 0%)" offset="0.351562"/><stop stop-opacity="1" stop-color="rgb(96.644592%, 0%, 0%)" offset="0.355469"/><stop stop-opacity="1" stop-color="rgb(96.107483%, 0%, 0%)" offset="0.359375"/><stop stop-opacity="1" stop-color="rgb(95.570374%, 0%, 0%)" offset="0.363281"/><stop stop-opacity="1" stop-color="rgb(95.03479%, 0%, 0%)" offset="0.367188"/><stop stop-opacity="1" stop-color="rgb(94.497681%, 0%, 0%)" offset="0.371094"/><stop stop-opacity="1" stop-color="rgb(93.962097%, 0%, 0%)" offset="0.375"/><stop stop-opacity="1" stop-color="rgb(93.424988%, 0%, 0%)" offset="0.378906"/><stop stop-opacity="1" stop-color="rgb(92.887878%, 0%, 0%)" offset="0.382812"/><stop stop-opacity="1" stop-color="rgb(92.352295%, 0%, 0%)" offset="0.386719"/><stop stop-opacity="1" stop-color="rgb(91.815186%, 0%, 0%)" offset="0.390625"/><stop stop-opacity="1" stop-color="rgb(91.278076%, 0%, 0%)" offset="0.394531"/><stop stop-opacity="1" stop-color="rgb(90.742493%, 0%, 0%)" offset="0.398438"/><stop stop-opacity="1" stop-color="rgb(90.205383%, 0%, 0%)" offset="0.402344"/><stop stop-opacity="1" stop-color="rgb(89.668274%, 0%, 0%)" offset="0.40625"/><stop stop-opacity="1" stop-color="rgb(89.13269%, 0%, 0%)" offset="0.410156"/><stop stop-opacity="1" stop-color="rgb(88.595581%, 0%, 0%)" offset="0.414062"/><stop stop-opacity="1" stop-color="rgb(88.058472%, 0%, 0%)" offset="0.417969"/><stop stop-opacity="1" stop-color="rgb(87.522888%, 0%, 0%)" offset="0.421875"/><stop stop-opacity="1" stop-color="rgb(86.985779%, 0%, 0%)" offset="0.425781"/><stop stop-opacity="1" stop-color="rgb(86.448669%, 0%, 0%)" offset="0.429688"/><stop stop-opacity="1" stop-color="rgb(85.913086%, 0%, 0%)" offset="0.433594"/><stop stop-opacity="1" stop-color="rgb(85.375977%, 0%, 0%)" offset="0.4375"/><stop stop-opacity="1" stop-color="rgb(84.838867%, 0%, 0%)" offset="0.441406"/><stop stop-opacity="1" stop-color="rgb(84.303284%, 0%, 0%)" offset="0.445312"/><stop stop-opacity="1" stop-color="rgb(83.766174%, 0%, 0%)" offset="0.449219"/><stop stop-opacity="1" stop-color="rgb(83.229065%, 0%, 0%)" offset="0.453125"/><stop stop-opacity="1" stop-color="rgb(82.693481%, 0%, 0%)" offset="0.457031"/><stop stop-opacity="1" stop-color="rgb(82.156372%, 0%, 0%)" offset="0.460938"/><stop stop-opacity="1" stop-color="rgb(81.619263%, 0%, 0%)" offset="0.464844"/><stop stop-opacity="1" stop-color="rgb(81.083679%, 0%, 0%)" offset="0.46875"/><stop stop-opacity="1" stop-color="rgb(80.54657%, 0%, 0%)" offset="0.472656"/><stop stop-opacity="1" stop-color="rgb(80.00946%, 0%, 0%)" offset="0.476562"/><stop stop-opacity="1" stop-color="rgb(79.473877%, 0%, 0%)" offset="0.480469"/><stop stop-opacity="1" stop-color="rgb(78.936768%, 0%, 0%)" offset="0.484375"/><stop stop-opacity="1" stop-color="rgb(78.401184%, 0%, 0%)" offset="0.488281"/><stop stop-opacity="1" stop-color="rgb(77.864075%, 0%, 0%)" offset="0.492188"/><stop stop-opacity="1" stop-color="rgb(77.326965%, 0%, 0%)" offset="0.496094"/><stop stop-opacity="1" stop-color="rgb(76.791382%, 0%, 0%)" offset="0.5"/><stop stop-opacity="1" stop-color="rgb(76.254272%, 0%, 0%)" offset="0.503906"/><stop stop-opacity="1" stop-color="rgb(75.717163%, 0%, 0%)" offset="0.507812"/><stop stop-opacity="1" stop-color="rgb(75.18158%, 0%, 0%)" offset="0.511719"/><stop stop-opacity="1" stop-color="rgb(74.64447%, 0%, 0%)" offset="0.515625"/><stop stop-opacity="1" stop-color="rgb(74.107361%, 0%, 0%)" offset="0.519531"/><stop stop-opacity="1" stop-color="rgb(73.571777%, 0%, 0%)" offset="0.523438"/><stop stop-opacity="1" stop-color="rgb(73.034668%, 0%, 0%)" offset="0.527344"/><stop stop-opacity="1" stop-color="rgb(72.497559%, 0%, 0%)" offset="0.53125"/><stop stop-opacity="1" stop-color="rgb(71.961975%, 0%, 0%)" offset="0.535156"/><stop stop-opacity="1" stop-color="rgb(71.424866%, 0%, 0%)" offset="0.539062"/><stop stop-opacity="1" stop-color="rgb(70.887756%, 0%, 0%)" offset="0.542969"/><stop stop-opacity="1" stop-color="rgb(70.352173%, 0%, 0%)" offset="0.546875"/><stop stop-opacity="1" stop-color="rgb(69.815063%, 0%, 0%)" offset="0.550781"/><stop stop-opacity="1" stop-color="rgb(69.277954%, 0%, 0%)" offset="0.554688"/><stop stop-opacity="1" stop-color="rgb(68.742371%, 0%, 0%)" offset="0.558594"/><stop stop-opacity="1" stop-color="rgb(68.205261%, 0%, 0%)" offset="0.5625"/><stop stop-opacity="1" stop-color="rgb(67.668152%, 0%, 0%)" offset="0.566406"/><stop stop-opacity="1" stop-color="rgb(67.132568%, 0%, 0%)" offset="0.570312"/><stop stop-opacity="1" stop-color="rgb(66.595459%, 0%, 0%)" offset="0.574219"/><stop stop-opacity="1" stop-color="rgb(66.05835%, 0%, 0%)" offset="0.578125"/><stop stop-opacity="1" stop-color="rgb(65.522766%, 0%, 0%)" offset="0.582031"/><stop stop-opacity="1" stop-color="rgb(64.985657%, 0%, 0%)" offset="0.585938"/><stop stop-opacity="1" stop-color="rgb(64.448547%, 0%, 0%)" offset="0.589844"/><stop stop-opacity="1" stop-color="rgb(63.912964%, 0%, 0%)" offset="0.59375"/><stop stop-opacity="1" stop-color="rgb(63.375854%, 0%, 0%)" offset="0.597656"/><stop stop-opacity="1" stop-color="rgb(62.840271%, 0%, 0%)" offset="0.601562"/><stop stop-opacity="1" stop-color="rgb(62.303162%, 0%, 0%)" offset="0.605469"/><stop stop-opacity="1" stop-color="rgb(61.766052%, 0%, 0%)" offset="0.609375"/><stop stop-opacity="1" stop-color="rgb(61.230469%, 0%, 0%)" offset="0.613281"/><stop stop-opacity="1" stop-color="rgb(60.693359%, 0%, 0%)" offset="0.617188"/><stop stop-opacity="1" stop-color="rgb(60.15625%, 0%, 0%)" offset="0.621094"/><stop stop-opacity="1" stop-color="rgb(59.620667%, 0%, 0%)" offset="0.625"/><stop stop-opacity="1" stop-color="rgb(59.083557%, 0%, 0%)" offset="0.628906"/><stop stop-opacity="1" stop-color="rgb(58.546448%, 0%, 0%)" offset="0.632812"/><stop stop-opacity="1" stop-color="rgb(58.010864%, 0%, 0%)" offset="0.636719"/><stop stop-opacity="1" stop-color="rgb(57.473755%, 0%, 0%)" offset="0.640625"/><stop stop-opacity="1" stop-color="rgb(56.936646%, 0%, 0%)" offset="0.644531"/><stop stop-opacity="1" stop-color="rgb(56.401062%, 0%, 0%)" offset="0.648438"/><stop stop-opacity="1" stop-color="rgb(55.863953%, 0%, 0%)" offset="0.652344"/><stop stop-opacity="1" stop-color="rgb(55.326843%, 0%, 0%)" offset="0.65625"/><stop stop-opacity="1" stop-color="rgb(54.79126%, 0%, 0%)" offset="0.660156"/><stop stop-opacity="1" stop-color="rgb(54.278564%, 0%, 0%)" offset="0.664062"/><stop stop-opacity="1" stop-color="rgb(53.863525%, 0%, 0%)" offset="0.667969"/><stop stop-opacity="1" stop-color="rgb(53.523254%, 0%, 0%)" offset="0.671875"/><stop stop-opacity="1" stop-color="rgb(53.182983%, 0%, 0%)" offset="0.675781"/><stop stop-opacity="1" stop-color="rgb(52.842712%, 0%, 0%)" offset="0.679688"/><stop stop-opacity="1" stop-color="rgb(52.502441%, 0%, 0%)" offset="0.683594"/><stop stop-opacity="1" stop-color="rgb(52.16217%, 0%, 0%)" offset="0.6875"/><stop stop-opacity="1" stop-color="rgb(51.821899%, 0%, 0%)" offset="0.691406"/><stop stop-opacity="1" stop-color="rgb(51.481628%, 0%, 0%)" offset="0.695312"/><stop stop-opacity="1" stop-color="rgb(51.139832%, 0%, 0%)" offset="0.699219"/><stop stop-opacity="1" stop-color="rgb(50.799561%, 0%, 0%)" offset="0.703125"/><stop stop-opacity="1" stop-color="rgb(50.45929%, 0%, 0%)" offset="0.707031"/><stop stop-opacity="1" stop-color="rgb(50.119019%, 0%, 0%)" offset="0.710938"/><stop stop-opacity="1" stop-color="rgb(49.778748%, 0%, 0%)" offset="0.714844"/><stop stop-opacity="1" stop-color="rgb(49.438477%, 0%, 0%)" offset="0.71875"/><stop stop-opacity="1" stop-color="rgb(49.098206%, 0%, 0%)" offset="0.722656"/><stop stop-opacity="1" stop-color="rgb(48.757935%, 0%, 0%)" offset="0.726562"/><stop stop-opacity="1" stop-color="rgb(48.417664%, 0%, 0%)" offset="0.730469"/><stop stop-opacity="1" stop-color="rgb(48.077393%, 0%, 0%)" offset="0.734375"/><stop stop-opacity="1" stop-color="rgb(47.737122%, 0%, 0%)" offset="0.738281"/><stop stop-opacity="1" stop-color="rgb(47.395325%, 0%, 0%)" offset="0.742188"/><stop stop-opacity="1" stop-color="rgb(47.055054%, 0%, 0%)" offset="0.746094"/><stop stop-opacity="1" stop-color="rgb(46.714783%, 0%, 0%)" offset="0.75"/><stop stop-opacity="1" stop-color="rgb(46.374512%, 0%, 0%)" offset="0.753906"/><stop stop-opacity="1" stop-color="rgb(46.034241%, 0%, 0%)" offset="0.757812"/><stop stop-opacity="1" stop-color="rgb(45.69397%, 0%, 0%)" offset="0.761719"/><stop stop-opacity="1" stop-color="rgb(45.353699%, 0%, 0%)" offset="0.765625"/><stop stop-opacity="1" stop-color="rgb(45.013428%, 0%, 0%)" offset="0.769531"/><stop stop-opacity="1" stop-color="rgb(44.673157%, 0%, 0%)" offset="0.773438"/><stop stop-opacity="1" stop-color="rgb(44.332886%, 0%, 0%)" offset="0.777344"/><stop stop-opacity="1" stop-color="rgb(43.991089%, 0%, 0%)" offset="0.78125"/><stop stop-opacity="1" stop-color="rgb(43.650818%, 0%, 0%)" offset="0.785156"/><stop stop-opacity="1" stop-color="rgb(43.310547%, 0%, 0%)" offset="0.789062"/><stop stop-opacity="1" stop-color="rgb(42.970276%, 0%, 0%)" offset="0.792969"/><stop stop-opacity="1" stop-color="rgb(42.630005%, 0%, 0%)" offset="0.796875"/><stop stop-opacity="1" stop-color="rgb(42.289734%, 0%, 0%)" offset="0.800781"/><stop stop-opacity="1" stop-color="rgb(41.949463%, 0%, 0%)" offset="0.804688"/><stop stop-opacity="1" stop-color="rgb(41.609192%, 0%, 0%)" offset="0.808594"/><stop stop-opacity="1" stop-color="rgb(41.268921%, 0%, 0%)" offset="0.8125"/><stop stop-opacity="1" stop-color="rgb(40.92865%, 0%, 0%)" offset="0.816406"/><stop stop-opacity="1" stop-color="rgb(40.586853%, 0%, 0%)" offset="0.820312"/><stop stop-opacity="1" stop-color="rgb(40.246582%, 0%, 0%)" offset="0.824219"/><stop stop-opacity="1" stop-color="rgb(39.906311%, 0%, 0%)" offset="0.828125"/><stop stop-opacity="1" stop-color="rgb(39.56604%, 0%, 0%)" offset="0.832031"/><stop stop-opacity="1" stop-color="rgb(39.225769%, 0%, 0%)" offset="0.835938"/><stop stop-opacity="1" stop-color="rgb(38.885498%, 0%, 0%)" offset="0.839844"/><stop stop-opacity="1" stop-color="rgb(38.545227%, 0%, 0%)" offset="0.84375"/><stop stop-opacity="1" stop-color="rgb(38.204956%, 0%, 0%)" offset="0.847656"/><stop stop-opacity="1" stop-color="rgb(37.864685%, 0%, 0%)" offset="0.851562"/><stop stop-opacity="1" stop-color="rgb(37.524414%, 0%, 0%)" offset="0.855469"/><stop stop-opacity="1" stop-color="rgb(37.184143%, 0%, 0%)" offset="0.859375"/><stop stop-opacity="1" stop-color="rgb(36.842346%, 0%, 0%)" offset="0.863281"/><stop stop-opacity="1" stop-color="rgb(36.502075%, 0%, 0%)" offset="0.867188"/><stop stop-opacity="1" stop-color="rgb(36.161804%, 0%, 0%)" offset="0.871094"/><stop stop-opacity="1" stop-color="rgb(35.821533%, 0%, 0%)" offset="0.875"/><stop stop-opacity="1" stop-color="rgb(35.481262%, 0%, 0%)" offset="0.878906"/><stop stop-opacity="1" stop-color="rgb(35.140991%, 0%, 0%)" offset="0.882812"/><stop stop-opacity="1" stop-color="rgb(34.80072%, 0%, 0%)" offset="0.886719"/><stop stop-opacity="1" stop-color="rgb(34.460449%, 0%, 0%)" offset="0.890625"/><stop stop-opacity="1" stop-color="rgb(34.120178%, 0%, 0%)" offset="0.894531"/><stop stop-opacity="1" stop-color="rgb(33.779907%, 0%, 0%)" offset="0.898438"/><stop stop-opacity="1" stop-color="rgb(33.43811%, 0%, 0%)" offset="0.902344"/><stop stop-opacity="1" stop-color="rgb(33.097839%, 0%, 0%)" offset="0.90625"/><stop stop-opacity="1" stop-color="rgb(32.757568%, 0%, 0%)" offset="0.910156"/><stop stop-opacity="1" stop-color="rgb(32.417297%, 0%, 0%)" offset="0.914062"/><stop stop-opacity="1" stop-color="rgb(32.077026%, 0%, 0%)" offset="0.917969"/><stop stop-opacity="1" stop-color="rgb(31.736755%, 0%, 0%)" offset="0.921875"/><stop stop-opacity="1" stop-color="rgb(31.396484%, 0%, 0%)" offset="0.925781"/><stop stop-opacity="1" stop-color="rgb(31.056213%, 0%, 0%)" offset="0.929688"/><stop stop-opacity="1" stop-color="rgb(30.715942%, 0%, 0%)" offset="0.933594"/><stop stop-opacity="1" stop-color="rgb(30.375671%, 0%, 0%)" offset="0.9375"/><stop stop-opacity="1" stop-color="rgb(30.033875%, 0%, 0%)" offset="0.941406"/><stop stop-opacity="1" stop-color="rgb(29.693604%, 0%, 0%)" offset="0.945312"/><stop stop-opacity="1" stop-color="rgb(29.353333%, 0%, 0%)" offset="0.949219"/><stop stop-opacity="1" stop-color="rgb(29.013062%, 0%, 0%)" offset="0.953125"/><stop stop-opacity="1" stop-color="rgb(28.672791%, 0%, 0%)" offset="0.957031"/><stop stop-opacity="1" stop-color="rgb(28.33252%, 0%, 0%)" offset="0.960938"/><stop stop-opacity="1" stop-color="rgb(27.992249%, 0%, 0%)" offset="0.964844"/><stop stop-opacity="1" stop-color="rgb(27.651978%, 0%, 0%)" offset="0.96875"/><stop stop-opacity="1" stop-color="rgb(27.311707%, 0%, 0%)" offset="0.972656"/><stop stop-opacity="1" stop-color="rgb(26.971436%, 0%, 0%)" offset="0.976562"/><stop stop-opacity="1" stop-color="rgb(26.631165%, 0%, 0%)" offset="0.980469"/><stop stop-opacity="1" stop-color="rgb(26.289368%, 0%, 0%)" offset="0.984375"/><stop stop-opacity="1" stop-color="rgb(25.949097%, 0%, 0%)" offset="0.988281"/><stop stop-opacity="1" stop-color="rgb(25.608826%, 0%, 0%)" offset="0.992188"/><stop stop-opacity="1" stop-color="rgb(25.268555%, 0%, 0%)" offset="0.996094"/><stop stop-opacity="1" stop-color="rgb(25.099182%, 0%, 0%)" offset="1"/></radialGradient><clipPath id="cc12dbe4b0"><rect x="0" width="220" y="0" height="220"/></clipPath><clipPath id="80aa9375ea"><path d="M 25.371094 29 L 194 29 L 194 182.46875 L 25.371094 182.46875 Z M 25.371094 29 " clip-rule="nonzero"/></clipPath><clipPath id="8b2bf87452"><path d="M 151 26.125 L 165 26.125 L 165 44 L 151 44 Z M 151 26.125 " clip-rule="nonzero"/></clipPath><clipPath id="f18b0af72f"><path d="M 0.800781 93 L 124 93 L 124 219.199219 L 0.800781 219.199219 Z M 0.800781 93 " clip-rule="nonzero"/></clipPath><clipPath id="eb2eb4706d"><rect x="0" width="220" y="0" height="220"/></clipPath></defs><g transform="matrix(1, 0, 0, 1, 10, 10)"><g clip-path="url(#eb2eb4706d)"><g clip-path="url(#0cb151b4ee)"><g clip-path="url(#751a558fd3)"><g transform="matrix(1, 0, 0, 1, -0.000000000000003553, -0.000000000000001776)"><g clip-path="url(#cc12dbe4b0)"><g clip-path="url(#50d723368c)"><g clip-path="url(#227615dfcf)"><path fill="url(#9ad6985c75)" d="M 0.890625 0.890625 L 0.890625 219.109375 L 219.109375 219.109375 L 219.109375 0.890625 Z M 0.890625 0.890625 " fill-rule="nonzero"/></g></g></g></g></g></g><path fill="#ffffff" d="M 92.484375 97.960938 C 92.484375 100.917969 94.882812 103.320312 97.839844 103.320312 C 100.800781 103.320312 103.210938 100.917969 103.210938 97.960938 C 103.210938 95 100.800781 92.589844 97.839844 92.589844 C 94.882812 92.589844 92.484375 95 92.484375 97.960938 Z M 92.484375 97.960938 " fill-opacity="1" fill-rule="nonzero"/><path fill="#ffffff" d="M 125.949219 97.960938 C 125.949219 95 123.546875 92.589844 120.589844 92.589844 C 117.628906 92.589844 115.214844 95 115.214844 97.960938 C 115.214844 100.917969 117.628906 103.320312 120.589844 103.320312 C 123.546875 103.320312 125.949219 100.914062 125.949219 97.960938 Z M 125.949219 97.960938 " fill-opacity="1" fill-rule="nonzero"/><g clip-path="url(#80aa9375ea)"><path fill="#ffffff" d="M 33.921875 144.070312 C 43.988281 151.953125 66.257812 156.097656 75.886719 156.207031 C 75.949219 156.207031 76.003906 156.207031 76.066406 156.207031 C 85.136719 156.207031 94.148438 148.167969 94.667969 139.570312 C 94.832031 136.910156 94.246094 129.078125 83.101562 125.484375 L 68.726562 102.363281 C 70.019531 102.117188 71.226562 101.964844 72.332031 101.914062 C 80.625 114.007812 94.53125 121.964844 110.269531 121.964844 C 112.832031 121.964844 114.914062 119.890625 114.914062 117.324219 C 114.914062 114.761719 112.832031 112.679688 110.269531 112.679688 C 92.324219 112.679688 77.375 99.722656 74.214844 82.671875 C 85.789062 86.027344 101.363281 88.382812 108.636719 88.382812 C 125.734375 88.382812 138.089844 85.515625 146.359375 82.527344 C 144.070312 94.992188 135.386719 105.722656 123.289062 110.308594 C 120.890625 111.21875 119.6875 113.90625 120.59375 116.300781 C 121.300781 118.152344 123.066406 119.292969 124.933594 119.292969 C 125.484375 119.292969 126.039062 119.195312 126.582031 118.988281 C 135.511719 115.601562 142.960938 109.542969 148.167969 101.941406 C 157.144531 102.621094 172.667969 109.523438 179.035156 115.851562 C 182.054688 118.847656 184.96875 124.058594 184.679688 128.945312 C 184.496094 132.046875 183.066406 134.601562 180.300781 136.765625 C 172.460938 142.910156 152.308594 146.835938 143.941406 146.925781 C 139.285156 146.972656 134.738281 142.441406 134.539062 139.015625 C 134.277344 134.730469 142.601562 133.480469 145.15625 133.199219 C 152.277344 132.414062 157.058594 129.898438 162.574219 126.683594 C 164.785156 125.390625 165.535156 122.546875 164.242188 120.332031 C 162.945312 118.117188 160.113281 117.371094 157.898438 118.664062 C 152.347656 121.898438 149.042969 123.433594 144.140625 123.96875 C 125.875 125.980469 125.085938 136.421875 125.273438 139.570312 C 125.796875 148.171875 134.804688 156.207031 143.871094 156.207031 C 143.929688 156.207031 143.988281 156.207031 144.050781 156.207031 C 146.820312 156.175781 150.65625 155.800781 154.921875 155.105469 L 164.160156 172.796875 L 56.8125 172.796875 C 54.25 172.796875 52.171875 174.875 52.171875 177.441406 C 52.171875 180.003906 54.25 182.082031 56.8125 182.082031 L 171.8125 182.082031 C 173.4375 182.082031 174.941406 181.234375 175.785156 179.847656 C 176.625 178.460938 176.675781 176.730469 175.929688 175.296875 L 164.386719 153.171875 C 172.582031 151.132812 180.894531 148.097656 186.023438 144.070312 C 190.867188 140.285156 193.609375 135.238281 193.949219 129.492188 C 194.441406 121.195312 189.949219 113.605469 185.582031 109.265625 C 178.503906 102.234375 163.941406 95.332031 152.855469 93.246094 C 154.800781 88.476562 155.9375 83.347656 156.183594 78.0625 C 158.289062 76.847656 159.378906 75.984375 159.542969 75.855469 C 160.609375 74.996094 161.238281 73.703125 161.265625 72.332031 C 161.363281 66.734375 155.742188 53.632812 154.019531 49.75 C 152.988281 47.429688 150.289062 46.367188 147.957031 47.363281 C 147.542969 47.539062 147.121094 47.714844 146.691406 47.890625 C 138 36.632812 124.59375 29.992188 110.273438 29.992188 C 95.953125 29.992188 82.691406 36.566406 74.003906 47.738281 C 73.207031 47.476562 72.390625 47.210938 71.699219 46.945312 C 69.34375 46.035156 66.699219 47.175781 65.746094 49.507812 C 62.753906 56.765625 58.054688 69.785156 60.15625 75.433594 C 60.613281 76.667969 62.160156 77.886719 64.449219 79.054688 C 64.777344 84.007812 65.871094 88.742188 67.648438 93.144531 C 66.324219 93.375 64.960938 93.664062 63.546875 94.03125 L 51.894531 75.285156 C 50.539062 73.105469 47.675781 72.445312 45.503906 73.792969 C 43.328125 75.148438 42.660156 78.007812 44.011719 80.183594 L 54.503906 97.066406 C 46.636719 100.242188 38.9375 104.726562 34.367188 109.265625 C 30 113.605469 25.507812 121.195312 25.996094 129.492188 C 26.335938 135.238281 29.074219 140.285156 33.921875 144.070312 Z M 110.269531 39.273438 C 120.503906 39.273438 130.113281 43.566406 137.003906 50.90625 C 130.996094 52.261719 123.074219 53.222656 111.890625 53.222656 L 110.070312 53.214844 C 100.664062 53.128906 91.546875 51.957031 84.046875 50.390625 C 90.878906 43.363281 100.230469 39.273438 110.269531 39.273438 Z M 72.671875 57.296875 C 72.773438 57.375 95.890625 62.8125 109.980469 62.496094 L 111.890625 62.503906 C 129.511719 62.503906 139.882812 60.226562 147.277344 57.59375 C 149.175781 62.234375 150.90625 67.046875 151.625 69.96875 C 146.726562 72.800781 133.085938 79.382812 108.640625 79.097656 C 90.335938 78.886719 69.058594 71.210938 68.871094 71.132812 C 69.082031 68.46875 70.59375 62.988281 72.671875 57.296875 Z M 40.90625 115.851562 C 44.835938 111.941406 52.265625 107.824219 59.488281 105.074219 L 70.515625 122.820312 C 67.949219 121.949219 65.410156 120.621094 62.046875 118.660156 C 59.835938 117.371094 56.996094 118.121094 55.699219 120.328125 C 54.410156 122.546875 55.15625 125.390625 57.371094 126.679688 C 62.886719 129.894531 67.667969 132.417969 74.785156 133.195312 C 77.34375 133.476562 85.660156 134.726562 85.402344 139.007812 C 85.199219 142.441406 80.40625 146.914062 75.992188 146.925781 C 67.632812 146.835938 47.484375 142.90625 39.640625 136.761719 C 36.875 134.601562 35.445312 132.042969 35.257812 128.941406 C 34.972656 124.058594 37.886719 118.847656 40.90625 115.851562 Z M 40.90625 115.851562 " fill-opacity="1" fill-rule="nonzero"/></g><g clip-path="url(#8b2bf87452)"><path fill="#ffffff" d="M 154.6875 43.246094 C 155.257812 43.480469 155.847656 43.585938 156.425781 43.585938 C 158.261719 43.585938 159.996094 42.488281 160.730469 40.683594 L 163.820312 33.042969 C 164.777344 30.667969 163.628906 27.960938 161.253906 27.003906 C 158.867188 26.035156 156.175781 27.195312 155.210938 29.566406 L 152.125 37.207031 C 151.160156 39.582031 152.3125 42.289062 154.6875 43.246094 Z M 154.6875 43.246094 " fill-opacity="1" fill-rule="nonzero"/></g><path fill="#ffffff" d="M 162.234375 51.257812 C 163.152344 52.457031 164.53125 53.089844 165.933594 53.089844 C 166.914062 53.089844 167.894531 52.78125 168.738281 52.144531 L 177.644531 45.382812 C 179.6875 43.832031 180.082031 40.921875 178.53125 38.878906 C 176.984375 36.835938 174.078125 36.441406 172.035156 37.988281 L 163.125 44.75 C 161.085938 46.300781 160.6875 49.210938 162.234375 51.257812 Z M 162.234375 51.257812 " fill-opacity="1" fill-rule="nonzero"/><path fill="#ffffff" d="M 165.113281 60.074219 C 165.039062 62.632812 167.054688 64.769531 169.621094 64.84375 L 179.796875 65.140625 C 179.839844 65.140625 179.886719 65.140625 179.929688 65.140625 C 182.429688 65.140625 184.492188 63.148438 184.5625 60.632812 C 184.640625 58.070312 182.621094 55.933594 180.058594 55.859375 L 169.882812 55.566406 C 167.257812 55.480469 165.191406 57.511719 165.113281 60.074219 Z M 165.113281 60.074219 " fill-opacity="1" fill-rule="nonzero"/><path stroke-linecap="round" transform="matrix(0.408323, -0.065913, 0.065913, 0.408323, 104.798768, 115.268302)" fill="none" stroke-linejoin="miter" d="M 10.982517 10.519705 C 21.010913 13.822244 35.527269 13.324255 54.531585 9.025738 " stroke="#ffffff" stroke-width="15" stroke-opacity="1" stroke-miterlimit="4"/><path stroke-linecap="round" transform="matrix(0.406498, -0.0763647, 0.0763647, 0.406498, 102.49131, 112.461135)" fill="none" stroke-linejoin="miter" d="M 9.87432 9.599786 C 23.914057 13.332779 40.712086 13.125123 60.249843 8.973331 " stroke="#ffffff" stroke-width="15" stroke-opacity="1" stroke-miterlimit="4"/><g clip-path="url(#f18b0af72f)"><path stroke-linecap="round" transform="matrix(0.219103, -0.350807, 0.350807, 0.219103, 42.694853, 177.998108)" fill="none" stroke-linejoin="miter" d="M 12.502541 12.502918 L 81.703321 12.497296 " stroke="#ffffff" stroke-width="25" stroke-opacity="1" stroke-miterlimit="4"/></g><path stroke-linecap="round" transform="matrix(0.413608, 0, 0, 0.413608, 69.978298, 164.004633)" fill="none" stroke-linejoin="miter" d="M 5.001294 5.003734 L 88.394664 5.003734 " stroke="#ffffff" stroke-width="10" stroke-opacity="1" stroke-miterlimit="4"/><path stroke-linecap="round" transform="matrix(0.413608, 0, 0, 0.413608, 113.664596, 164.004633)" fill="none" stroke-linejoin="miter" d="M 5.004202 5.003734 L 88.397572 5.003734 " stroke="#ffffff" stroke-width="10" stroke-opacity="1" stroke-miterlimit="4"/><path stroke-linecap="round" transform="matrix(0.413608, 0, 0, 0.413608, 90.685643, 153.614263)" fill="none" stroke-linejoin="miter" d="M 5.000535 5.003117 L 33.834053 5.003117 " stroke="#ffffff" stroke-width="10" stroke-opacity="1" stroke-miterlimit="4"/><path stroke-linecap="round" transform="matrix(0.413608, 0, 0, 0.413608, 113.253692, 153.614263)" fill="none" stroke-linejoin="miter" d="M 4.996566 5.003117 L 33.830083 5.003117 " stroke="#ffffff" stroke-width="10" stroke-opacity="1" stroke-miterlimit="4"/><path stroke-linecap="round" transform="matrix(0.413608, 0, 0, 0.413608, 44.914171, 172.548568)" fill="none" stroke-linejoin="miter" d="M 12.504021 12.500191 L 304.834143 12.500191 " stroke="#ffffff" stroke-width="25" stroke-opacity="1" stroke-miterlimit="4"/></g></g></svg>