<svg xmlns="http://www.w3.org/2000/svg" xmlns:xlink="http://www.w3.org/1999/xlink" width="1080" zoomAndPan="magnify" viewBox="0 0 810 809.999993" height="1080" preserveAspectRatio="xMidYMid meet" version="1.0"><defs><clipPath id="9566e8389d"><path d="M 0 356 L 437 356 L 437 755.839844 L 0 755.839844 Z M 0 356 " clip-rule="nonzero"/></clipPath><clipPath id="1c3ebbfe92"><rect x="0" width="809" y="0" height="756"/></clipPath></defs><g transform="matrix(1, 0, 0, 1, 0, 28)"><g clip-path="url(#1c3ebbfe92)"><path fill="#ffffff" d="M 321.179688 345.066406 C 321.179688 359.21875 332.667969 370.722656 346.820312 370.722656 C 360.992188 370.722656 372.527344 359.21875 372.527344 345.066406 C 372.527344 330.894531 360.992188 319.371094 346.820312 319.371094 C 332.667969 319.359375 321.179688 330.894531 321.179688 345.066406 Z M 321.179688 345.066406 " fill-opacity="1" fill-rule="nonzero"/><path fill="#ffffff" d="M 481.347656 345.066406 C 481.347656 330.894531 469.832031 319.371094 455.699219 319.371094 C 441.515625 319.371094 429.964844 330.894531 429.964844 345.066406 C 429.964844 359.21875 441.515625 370.722656 455.699219 370.722656 C 469.832031 370.722656 481.347656 359.210938 481.347656 345.066406 Z M 481.347656 345.066406 " fill-opacity="1" fill-rule="nonzero"/><path fill="#ffffff" d="M 40.921875 565.730469 C 89.09375 603.464844 195.671875 623.296875 241.757812 623.8125 C 242.050781 623.8125 242.316406 623.8125 242.609375 623.8125 C 286.03125 623.8125 329.15625 585.347656 331.644531 544.195312 C 332.425781 531.472656 329.621094 493.984375 276.285156 476.785156 L 207.488281 366.140625 C 213.671875 364.957031 219.457031 364.238281 224.742188 363.988281 C 264.441406 421.867188 330.988281 459.945312 406.304688 459.945312 C 418.566406 459.945312 428.527344 450.015625 428.527344 437.742188 C 428.527344 425.464844 418.566406 415.511719 406.304688 415.511719 C 320.414062 415.511719 248.882812 353.503906 233.75 271.90625 C 289.148438 287.953125 363.683594 299.226562 398.496094 299.226562 C 480.308594 299.226562 539.4375 285.507812 579.011719 271.203125 C 568.058594 330.859375 526.5 382.210938 468.605469 404.167969 C 457.136719 408.519531 451.378906 421.367188 455.714844 432.832031 C 459.101562 441.699219 467.542969 447.160156 476.480469 447.160156 C 479.109375 447.160156 481.773438 446.691406 484.371094 445.703125 C 527.097656 429.5 562.761719 400.488281 587.664062 364.121094 C 630.632812 367.375 704.929688 400.398438 735.394531 430.6875 C 749.832031 445.03125 763.785156 469.96875 762.40625 493.347656 C 761.527344 508.183594 754.675781 520.425781 741.445312 530.769531 C 703.925781 560.179688 607.480469 578.96875 567.445312 579.40625 C 545.160156 579.628906 523.410156 557.9375 522.441406 541.539062 C 521.1875 521.03125 561.039062 515.0625 573.261719 513.703125 C 607.335938 509.953125 630.214844 497.902344 656.613281 482.523438 C 667.203125 476.339844 670.792969 462.738281 664.601562 452.128906 C 658.398438 441.527344 644.839844 437.964844 634.230469 444.140625 C 607.664062 459.628906 591.859375 466.964844 568.402344 469.535156 C 480.992188 479.15625 477.199219 529.132812 478.105469 544.203125 C 480.601562 585.359375 523.722656 623.820312 567.105469 623.820312 C 567.390625 623.820312 567.664062 623.820312 567.957031 623.820312 C 581.222656 623.671875 599.582031 621.867188 620 618.550781 L 664.199219 703.21875 L 150.472656 703.21875 C 138.203125 703.21875 128.261719 713.160156 128.261719 725.4375 C 128.261719 737.707031 138.203125 747.652344 150.472656 747.652344 L 700.832031 747.652344 C 708.597656 747.652344 715.796875 743.582031 719.847656 736.945312 C 723.863281 730.308594 724.101562 722.035156 720.53125 715.167969 L 665.292969 609.285156 C 704.503906 599.539062 744.289062 585.003906 768.839844 565.742188 C 792.011719 547.625 805.144531 523.476562 806.769531 495.957031 C 809.125 456.269531 787.621094 419.9375 766.734375 399.164062 C 732.855469 365.527344 663.160156 332.484375 610.101562 322.496094 C 619.421875 299.671875 624.847656 275.140625 626.039062 249.84375 C 636.105469 244.023438 641.332031 239.894531 642.105469 239.28125 C 647.210938 235.15625 650.226562 228.972656 650.359375 222.417969 C 650.820312 195.628906 623.925781 132.917969 615.671875 114.339844 C 610.738281 103.242188 597.832031 98.160156 586.652344 102.921875 C 584.679688 103.765625 582.664062 104.601562 580.601562 105.445312 C 539.011719 51.578125 474.851562 19.796875 406.316406 19.796875 C 337.792969 19.796875 274.320312 51.257812 232.746094 104.726562 C 228.9375 103.457031 225.027344 102.183594 221.722656 100.914062 C 210.445312 96.5625 197.785156 102.015625 193.21875 113.183594 C 178.90625 147.925781 156.417969 210.234375 166.472656 237.253906 C 168.660156 243.164062 176.070312 249 187.023438 254.589844 C 188.597656 278.285156 193.824219 300.949219 202.335938 322.015625 C 195.992188 323.128906 189.46875 324.503906 182.707031 326.253906 L 126.925781 236.554688 C 120.441406 226.121094 106.742188 222.949219 96.34375 229.410156 C 85.933594 235.886719 82.75 249.578125 89.21875 260 L 139.429688 340.78125 C 101.78125 355.984375 64.917969 377.441406 43.054688 399.164062 C 22.15625 419.9375 0.664062 456.269531 3 495.957031 C 4.625 523.464844 17.730469 547.613281 40.921875 565.730469 Z M 406.304688 64.210938 C 455.289062 64.210938 501.269531 84.753906 534.242188 119.875 C 505.488281 126.371094 467.585938 130.972656 414.054688 130.972656 L 405.347656 130.929688 C 360.335938 130.519531 316.703125 124.914062 280.804688 117.40625 C 313.511719 83.777344 358.265625 64.210938 406.304688 64.210938 Z M 226.375 150.457031 C 226.867188 150.832031 337.492188 176.855469 404.921875 175.335938 L 414.054688 175.378906 C 498.378906 175.378906 548.011719 164.488281 583.402344 151.886719 C 592.5 174.101562 600.769531 197.121094 604.21875 211.097656 C 580.78125 224.65625 515.484375 256.152344 398.515625 254.792969 C 310.910156 253.78125 209.070312 217.058594 208.1875 216.667969 C 209.183594 203.925781 216.417969 177.707031 226.375 150.457031 Z M 74.347656 430.679688 C 93.164062 411.976562 128.714844 392.28125 163.277344 379.113281 L 216.050781 464.042969 C 203.765625 459.867188 191.617188 453.515625 175.527344 444.132812 C 164.9375 437.964844 151.34375 441.554688 145.140625 452.121094 C 138.976562 462.726562 142.539062 476.332031 153.148438 482.515625 C 179.535156 497.886719 202.414062 509.960938 236.488281 513.691406 C 248.722656 515.042969 288.535156 521.023438 287.300781 541.511719 C 286.324219 557.929688 263.390625 579.34375 242.253906 579.398438 C 202.253906 578.960938 105.824219 560.167969 68.296875 530.761719 C 55.066406 520.417969 48.214844 508.175781 47.328125 493.335938 C 45.949219 469.960938 59.910156 445.019531 74.347656 430.679688 Z M 74.347656 430.679688 " fill-opacity="1" fill-rule="nonzero"/><path fill="#ffffff" d="M 618.871094 83.226562 C 621.597656 84.335938 624.421875 84.851562 627.1875 84.851562 C 635.972656 84.851562 644.28125 79.601562 647.789062 70.964844 L 662.574219 34.394531 C 667.167969 23.019531 661.660156 10.074219 650.304688 5.492188 C 638.871094 0.863281 625.996094 6.40625 621.375 17.75 L 606.609375 54.324219 C 601.988281 65.675781 607.496094 78.632812 618.871094 83.226562 Z M 618.871094 83.226562 " fill-opacity="1" fill-rule="nonzero"/><path fill="#ffffff" d="M 654.996094 121.554688 C 659.375 127.304688 665.988281 130.332031 672.6875 130.332031 C 677.378906 130.332031 682.085938 128.847656 686.121094 125.8125 L 728.742188 93.441406 C 738.503906 86.023438 740.40625 72.101562 732.980469 62.320312 C 725.585938 52.546875 711.664062 50.652344 701.890625 58.0625 L 659.25 90.421875 C 649.488281 97.839844 647.585938 111.773438 654.996094 121.554688 Z M 654.996094 121.554688 " fill-opacity="1" fill-rule="nonzero"/><path fill="#ffffff" d="M 668.769531 163.75 C 668.402344 176 678.0625 186.226562 690.339844 186.582031 L 739.03125 187.996094 C 739.242188 187.996094 739.464844 187.996094 739.667969 187.996094 C 751.636719 187.996094 761.507812 178.464844 761.847656 166.421875 C 762.210938 154.171875 752.5625 143.9375 740.28125 143.582031 L 691.59375 142.175781 C 679.03125 141.777344 669.132812 151.488281 668.769531 163.75 Z M 668.769531 163.75 " fill-opacity="1" fill-rule="nonzero"/><path stroke-linecap="round" transform="matrix(0.279984, -0.0451961, 0.0451961, 0.279984, 380.578753, 428.471141)" fill="none" stroke-linejoin="miter" d="M 72.847068 70.305883 C 143.303416 94.41709 246.151608 91.068338 381.36445 60.255239 " stroke="#ffffff" stroke-width="100" stroke-opacity="1" stroke-miterlimit="4"/><path stroke-linecap="round" transform="matrix(0.278733, -0.0523628, 0.0523628, 0.278733, 369.422798, 415.05183)" fill="none" stroke-linejoin="miter" d="M 65.769823 64.134645 C 164.781161 90.989353 283.513742 89.554222 421.978561 59.845331 " stroke="#ffffff" stroke-width="100" stroke-opacity="1" stroke-miterlimit="4"/><g clip-path="url(#9566e8389d)"><path stroke-linecap="round" transform="matrix(0.150238, -0.240546, 0.240546, 0.150238, 85.488069, 729.724742)" fill="none" stroke-linejoin="miter" d="M 76.498802 76.499742 L 580.964009 76.496674 " stroke="#ffffff" stroke-width="153" stroke-opacity="1" stroke-miterlimit="4"/></g><path stroke-linecap="round" transform="matrix(0.283609, 0.000000000000000791, -0.000000000000000791, 0.283609, 213.468523, 661.953521)" fill="none" stroke-linejoin="miter" d="M 31.996355 31.994158 L 619.830324 31.994158 " stroke="#ffffff" stroke-width="64" stroke-opacity="1" stroke-miterlimit="4"/><path stroke-linecap="round" transform="matrix(0.283609, 0.000000000000000396, -0.000000000000000396, 0.283609, 422.537622, 661.953521)" fill="none" stroke-linejoin="miter" d="M 32.000634 31.994158 L 619.834602 31.994158 " stroke="#ffffff" stroke-width="64" stroke-opacity="1" stroke-miterlimit="4"/><path stroke-linecap="round" transform="matrix(0.283609, 0, 0, 0.283609, 312.567497, 612.228476)" fill="none" stroke-linejoin="miter" d="M 32.005484 32.002583 L 239.005571 32.002583 " stroke="#ffffff" stroke-width="64" stroke-opacity="1" stroke-miterlimit="4"/><path stroke-linecap="round" transform="matrix(0.283609, 0, 0, 0.283609, 420.571134, 612.228476)" fill="none" stroke-linejoin="miter" d="M 32.006431 32.002583 L 239.006518 32.002583 " stroke="#ffffff" stroke-width="64" stroke-opacity="1" stroke-miterlimit="4"/><path stroke-linecap="round" transform="matrix(0.283609, 0, 0, 0.283609, 93.519373, 705.067143)" fill="none" stroke-linejoin="miter" d="M 76.497895 76.494739 L 2037.950779 76.494739 " stroke="#ffffff" stroke-width="153" stroke-opacity="1" stroke-miterlimit="4"/></g></g></svg>