<svg xmlns="http://www.w3.org/2000/svg" xmlns:xlink="http://www.w3.org/1999/xlink" width="1080" zoomAndPan="magnify" viewBox="0 0 810 809.999993" height="1080" preserveAspectRatio="xMidYMid meet" version="1.0"><defs><g/><clipPath id="dcf78fc234"><path d="M 46.488281 46.488281 L 763.511719 46.488281 L 763.511719 763.511719 L 46.488281 763.511719 Z M 46.488281 46.488281 " clip-rule="nonzero"/></clipPath><clipPath id="d9f76ff18a"><path d="M 93.738281 46.488281 L 716.261719 46.488281 C 742.355469 46.488281 763.511719 67.644531 763.511719 93.738281 L 763.511719 716.261719 C 763.511719 742.355469 742.355469 763.511719 716.261719 763.511719 L 93.738281 763.511719 C 67.644531 763.511719 46.488281 742.355469 46.488281 716.261719 L 46.488281 93.738281 C 46.488281 67.644531 67.644531 46.488281 93.738281 46.488281 Z M 93.738281 46.488281 " clip-rule="nonzero"/></clipPath><clipPath id="234130ab9a"><path d="M 0.488281 0.488281 L 717.511719 0.488281 L 717.511719 717.511719 L 0.488281 717.511719 Z M 0.488281 0.488281 " clip-rule="nonzero"/></clipPath><clipPath id="6785a38398"><path d="M 47.738281 0.488281 L 670.261719 0.488281 C 696.355469 0.488281 717.511719 21.644531 717.511719 47.738281 L 717.511719 670.261719 C 717.511719 696.355469 696.355469 717.511719 670.261719 717.511719 L 47.738281 717.511719 C 21.644531 717.511719 0.488281 696.355469 0.488281 670.261719 L 0.488281 47.738281 C 0.488281 21.644531 21.644531 0.488281 47.738281 0.488281 Z M 47.738281 0.488281 " clip-rule="nonzero"/></clipPath><clipPath id="475b0eab34"><rect x="0" width="718" y="0" height="718"/></clipPath><clipPath id="160a764b98"><path d="M 46.488281 46.488281 L 763.460938 46.488281 L 763.460938 763.460938 L 46.488281 763.460938 Z M 46.488281 46.488281 " clip-rule="nonzero"/></clipPath><clipPath id="f643df11d5"><path d="M 93.738281 46.488281 L 716.257812 46.488281 C 742.355469 46.488281 763.507812 67.644531 763.507812 93.738281 L 763.507812 716.257812 C 763.507812 742.355469 742.355469 763.507812 716.257812 763.507812 L 93.738281 763.507812 C 67.644531 763.507812 46.488281 742.355469 46.488281 716.257812 L 46.488281 93.738281 C 46.488281 67.644531 67.644531 46.488281 93.738281 46.488281 Z M 93.738281 46.488281 " clip-rule="nonzero"/></clipPath><clipPath id="7e279be7f4"><rect x="0" width="636" y="0" height="92"/></clipPath><clipPath id="5de2167459"><path d="M 102 99 L 714 99 L 714 652.761719 L 102 652.761719 Z M 102 99 " clip-rule="nonzero"/></clipPath><clipPath id="e63486eec1"><path d="M 2 354 L 433 354 L 433 810 L 2 810 Z M 2 354 " clip-rule="nonzero"/></clipPath><clipPath id="b44bbfbeaf"><rect x="0" width="810" y="0" height="810"/></clipPath></defs><g transform="matrix(1, 0, 0, 1, 0, 0.000000000000039746)"><g clip-path="url(#b44bbfbeaf)"><g clip-path="url(#dcf78fc234)"><g clip-path="url(#d9f76ff18a)"><g transform="matrix(1, 0, 0, 1, 46, 46)"><g clip-path="url(#475b0eab34)"><g clip-path="url(#234130ab9a)"><g clip-path="url(#6785a38398)"><path fill="#ffffff" d="M 0.488281 0.488281 L 717.511719 0.488281 L 717.511719 717.511719 L 0.488281 717.511719 Z M 0.488281 0.488281 " fill-opacity="1" fill-rule="nonzero"/></g></g></g></g></g></g><g clip-path="url(#160a764b98)"><g clip-path="url(#f643df11d5)"><path stroke-linecap="butt" transform="matrix(0.215242, 0, 0, 0.215242, 46.48906, 46.489002)" fill="none" stroke-linejoin="miter" d="M 219.516303 -0.00334698 L 3111.69486 -0.00334698 C 3232.942592 -0.00334698 3331.214778 98.286987 3331.214778 219.516572 L 3331.214778 3111.695129 C 3331.214778 3232.942861 3232.942592 3331.215047 3111.69486 3331.215047 L 219.516303 3331.215047 C 98.286718 3331.215047 -0.00361597 3232.942861 -0.00361597 3111.695129 L -0.00361597 219.516572 C -0.00361597 98.286987 98.286718 -0.00334698 219.516303 -0.00334698 Z M 219.516303 -0.00334698 " stroke="#000000" stroke-width="174.22215" stroke-opacity="1" stroke-miterlimit="4"/></g></g><g transform="matrix(1, 0, 0, 1, 86, 651)"><g clip-path="url(#7e279be7f4)"><g fill="#000000" fill-opacity="1"><g transform="translate(2.461363, 68.56226)"><g><path d="M 20.5625 0.953125 C 16.21875 0.953125 12.265625 0.332031 8.703125 -0.90625 C 5.140625 -2.15625 1.992188 -4.535156 -0.734375 -8.046875 L 8.859375 -17.1875 C 10.222656 -15.582031 11.71875 -14.363281 13.34375 -13.53125 C 14.976562 -12.707031 16.613281 -12.144531 18.25 -11.84375 C 19.882812 -11.550781 21.410156 -11.40625 22.828125 -11.40625 C 25.410156 -11.40625 27.539062 -11.84375 29.21875 -12.71875 C 30.90625 -13.601562 31.75 -14.828125 31.75 -16.390625 C 31.75 -18.679688 29.140625 -20.09375 23.921875 -20.625 C 20.648438 -20.96875 17.632812 -21.566406 14.875 -22.421875 C 12.125 -23.273438 9.921875 -24.648438 8.265625 -26.546875 C 6.609375 -28.453125 5.78125 -31.085938 5.78125 -34.453125 C 5.78125 -37.578125 6.484375 -40.269531 7.890625 -42.53125 C 9.304688 -44.800781 11.195312 -46.664062 13.5625 -48.125 C 15.9375 -49.59375 18.5625 -50.679688 21.4375 -51.390625 C 24.3125 -52.097656 27.238281 -52.453125 30.21875 -52.453125 C 34.070312 -52.453125 37.457031 -51.988281 40.375 -51.0625 C 43.300781 -50.132812 45.9375 -48.570312 48.28125 -46.375 L 39.5 -37.390625 C 37.9375 -38.703125 36.21875 -39.578125 34.34375 -40.015625 C 32.46875 -40.453125 30.410156 -40.671875 28.171875 -40.671875 C 26.953125 -40.671875 25.742188 -40.523438 24.546875 -40.234375 C 23.347656 -39.941406 22.359375 -39.46875 21.578125 -38.8125 C 20.796875 -38.15625 20.40625 -37.289062 20.40625 -36.21875 C 20.40625 -34.800781 21.125 -33.820312 22.5625 -33.28125 C 24.007812 -32.75 25.851562 -32.382812 28.09375 -32.1875 C 30.382812 -31.945312 32.601562 -31.519531 34.75 -30.90625 C 36.894531 -30.300781 38.832031 -29.4375 40.5625 -28.3125 C 42.289062 -27.1875 43.664062 -25.769531 44.6875 -24.0625 C 45.71875 -22.363281 46.234375 -20.289062 46.234375 -17.84375 C 46.234375 -14.53125 45.535156 -11.675781 44.140625 -9.28125 C 42.753906 -6.894531 40.851562 -4.945312 38.4375 -3.4375 C 36.03125 -1.925781 33.289062 -0.816406 30.21875 -0.109375 C 27.144531 0.597656 23.925781 0.953125 20.5625 0.953125 Z M 20.5625 0.953125 "/></g></g></g><g fill="#000000" fill-opacity="1"><g transform="translate(51.327923, 68.56226)"><g><path d="M 1.46875 0 L 10.46875 -51.203125 L 49.453125 -51.203125 L 47.328125 -39.0625 L 22.609375 -39.0625 L 21.359375 -31.75 L 44.625 -31.75 L 42.5 -19.96875 L 19.234375 -19.96875 L 17.84375 -12.21875 L 44.546875 -12.21875 L 42.4375 0 Z M 1.46875 0 "/></g></g></g><g fill="#000000" fill-opacity="1"><g transform="translate(100.048189, 68.56226)"><g><path d="M -4.6875 0 L 27.28125 -51.203125 L 41.921875 -51.203125 L 55.8125 0 L 40.75 0 L 38.84375 -8.40625 L 15.953125 -8.40625 L 11.125 0 Z M 23.046875 -20.5625 L 36.140625 -20.5625 L 32.484375 -36.5 Z M 23.046875 -20.5625 "/></g></g></g><g fill="#000000" fill-opacity="1"><g transform="translate(158.497854, 68.56226)"><g><path d="M 1.46875 0 L 10.46875 -51.203125 L 25.53125 -51.203125 L 35.78125 -33.875 L 52.453125 -51.203125 L 67.59375 -51.203125 L 58.59375 0 L 44.265625 0 L 49.8125 -31.3125 L 43.09375 -24.0625 L 33.796875 -15 L 31.234375 -15 L 25.671875 -23.484375 L 21.0625 -31.3125 L 15.796875 0 Z M 1.46875 0 "/></g></g></g><g fill="#000000" fill-opacity="1"><g transform="translate(226.091721, 68.56226)"><g><path d="M 27.5 0.953125 C 22.476562 0.953125 18.125 0.0507812 14.4375 -1.75 C 10.757812 -3.5625 7.910156 -6.160156 5.890625 -9.546875 C 3.867188 -12.929688 2.859375 -17.039062 2.859375 -21.875 C 2.859375 -26.601562 3.695312 -30.859375 5.375 -34.640625 C 7.0625 -38.421875 9.40625 -41.640625 12.40625 -44.296875 C 15.40625 -46.953125 18.914062 -48.972656 22.9375 -50.359375 C 26.957031 -51.753906 31.3125 -52.453125 36 -52.453125 C 41.019531 -52.453125 45.367188 -51.550781 49.046875 -49.75 C 52.734375 -47.945312 55.585938 -45.347656 57.609375 -41.953125 C 59.628906 -38.566406 60.640625 -34.457031 60.640625 -29.625 C 60.640625 -24.800781 59.8125 -20.5 58.15625 -16.71875 C 56.5 -12.9375 54.171875 -9.726562 51.171875 -7.09375 C 48.171875 -4.457031 44.660156 -2.457031 40.640625 -1.09375 C 36.617188 0.269531 32.238281 0.953125 27.5 0.953125 Z M 28.890625 -11.40625 C 32.210938 -11.40625 35.148438 -12.160156 37.703125 -13.671875 C 40.265625 -15.191406 42.289062 -17.265625 43.78125 -19.890625 C 45.269531 -22.523438 46.015625 -25.503906 46.015625 -28.828125 C 46.015625 -32.285156 45 -35.023438 42.96875 -37.046875 C 40.945312 -39.078125 38.132812 -40.09375 34.53125 -40.09375 C 31.363281 -40.09375 28.484375 -39.347656 25.890625 -37.859375 C 23.304688 -36.367188 21.257812 -34.332031 19.75 -31.75 C 18.238281 -29.164062 17.484375 -26.210938 17.484375 -22.890625 C 17.484375 -19.484375 18.503906 -16.71875 20.546875 -14.59375 C 22.597656 -12.46875 25.378906 -11.40625 28.890625 -11.40625 Z M 28.890625 -11.40625 "/></g></g></g><g fill="#000000" fill-opacity="1"><g transform="translate(288.199061, 68.56226)"><g><path d="M 20.5625 0.953125 C 16.21875 0.953125 12.265625 0.332031 8.703125 -0.90625 C 5.140625 -2.15625 1.992188 -4.535156 -0.734375 -8.046875 L 8.859375 -17.1875 C 10.222656 -15.582031 11.71875 -14.363281 13.34375 -13.53125 C 14.976562 -12.707031 16.613281 -12.144531 18.25 -11.84375 C 19.882812 -11.550781 21.410156 -11.40625 22.828125 -11.40625 C 25.410156 -11.40625 27.539062 -11.84375 29.21875 -12.71875 C 30.90625 -13.601562 31.75 -14.828125 31.75 -16.390625 C 31.75 -18.679688 29.140625 -20.09375 23.921875 -20.625 C 20.648438 -20.96875 17.632812 -21.566406 14.875 -22.421875 C 12.125 -23.273438 9.921875 -24.648438 8.265625 -26.546875 C 6.609375 -28.453125 5.78125 -31.085938 5.78125 -34.453125 C 5.78125 -37.578125 6.484375 -40.269531 7.890625 -42.53125 C 9.304688 -44.800781 11.195312 -46.664062 13.5625 -48.125 C 15.9375 -49.59375 18.5625 -50.679688 21.4375 -51.390625 C 24.3125 -52.097656 27.238281 -52.453125 30.21875 -52.453125 C 34.070312 -52.453125 37.457031 -51.988281 40.375 -51.0625 C 43.300781 -50.132812 45.9375 -48.570312 48.28125 -46.375 L 39.5 -37.390625 C 37.9375 -38.703125 36.21875 -39.578125 34.34375 -40.015625 C 32.46875 -40.453125 30.410156 -40.671875 28.171875 -40.671875 C 26.953125 -40.671875 25.742188 -40.523438 24.546875 -40.234375 C 23.347656 -39.941406 22.359375 -39.46875 21.578125 -38.8125 C 20.796875 -38.15625 20.40625 -37.289062 20.40625 -36.21875 C 20.40625 -34.800781 21.125 -33.820312 22.5625 -33.28125 C 24.007812 -32.75 25.851562 -32.382812 28.09375 -32.1875 C 30.382812 -31.945312 32.601562 -31.519531 34.75 -30.90625 C 36.894531 -30.300781 38.832031 -29.4375 40.5625 -28.3125 C 42.289062 -27.1875 43.664062 -25.769531 44.6875 -24.0625 C 45.71875 -22.363281 46.234375 -20.289062 46.234375 -17.84375 C 46.234375 -14.53125 45.535156 -11.675781 44.140625 -9.28125 C 42.753906 -6.894531 40.851562 -4.945312 38.4375 -3.4375 C 36.03125 -1.925781 33.289062 -0.816406 30.21875 -0.109375 C 27.144531 0.597656 23.925781 0.953125 20.5625 0.953125 Z M 20.5625 0.953125 "/></g></g></g><g fill="#000000" fill-opacity="1"><g transform="translate(337.065637, 68.56226)"><g><path d="M 26.34375 1.171875 C 22.050781 1.171875 18.390625 0.5625 15.359375 -0.65625 C 12.335938 -1.875 9.882812 -3.546875 8 -5.671875 C 6.125 -7.796875 4.757812 -10.1875 3.90625 -12.84375 C 3.0625 -15.5 2.640625 -18.238281 2.640625 -21.0625 C 2.640625 -24.875 3.34375 -28.628906 4.75 -32.328125 C 6.164062 -36.035156 8.273438 -39.414062 11.078125 -42.46875 C 13.890625 -45.519531 17.363281 -47.945312 21.5 -49.75 C 25.644531 -51.550781 30.453125 -52.453125 35.921875 -52.453125 C 39.378906 -52.453125 42.679688 -51.898438 45.828125 -50.796875 C 48.972656 -49.703125 51.890625 -47.5 54.578125 -44.1875 L 44.984375 -36.28125 C 43.429688 -38.039062 41.65625 -39.148438 39.65625 -39.609375 C 37.65625 -40.078125 35.675781 -40.3125 33.71875 -40.3125 C 28.75 -40.3125 24.773438 -38.847656 21.796875 -35.921875 C 18.828125 -32.992188 17.144531 -28.726562 16.75 -23.125 C 16.65625 -21.21875 17 -19.320312 17.78125 -17.4375 C 18.5625 -15.5625 19.851562 -14.003906 21.65625 -12.765625 C 23.457031 -11.523438 25.773438 -10.90625 28.609375 -10.90625 C 29.972656 -10.90625 31.617188 -11.109375 33.546875 -11.515625 C 35.472656 -11.929688 37.265625 -12.675781 38.921875 -13.75 L 39.9375 -20.046875 L 27 -20.046875 L 29.046875 -31.390625 L 54.0625 -31.390625 L 50.109375 -8.921875 C 48.691406 -6.773438 46.738281 -4.945312 44.25 -3.4375 C 41.769531 -1.925781 38.992188 -0.78125 35.921875 0 C 32.847656 0.78125 29.65625 1.171875 26.34375 1.171875 Z M 26.34375 1.171875 "/></g></g></g><g fill="#000000" fill-opacity="1"><g transform="translate(392.44287, 68.56226)"><g><path d="M 1.46875 0 L 10.46875 -51.203125 L 49.453125 -51.203125 L 47.328125 -39.0625 L 22.609375 -39.0625 L 21.359375 -31.75 L 44.625 -31.75 L 42.5 -19.96875 L 19.234375 -19.96875 L 17.84375 -12.21875 L 44.546875 -12.21875 L 42.4375 0 Z M 1.46875 0 "/></g></g></g><g fill="#000000" fill-opacity="1"><g transform="translate(441.163136, 68.56226)"><g><path d="M 1.46875 0 L 10.46875 -51.203125 L 22.75 -51.203125 L 39.5 -22.453125 C 39.894531 -25.523438 40.1875 -27.914062 40.375 -29.625 C 40.570312 -31.332031 40.742188 -32.675781 40.890625 -33.65625 L 43.96875 -51.203125 L 58.53125 -51.203125 L 49.53125 0 L 37.234375 0 L 20.703125 -27.578125 L 18.953125 -16.390625 L 16.09375 0 Z M 1.46875 0 "/></g></g></g><g fill="#000000" fill-opacity="1"><g transform="translate(499.685971, 68.56226)"><g><path d="M 1.46875 0 L 10.46875 -51.203125 L 24.875 -51.203125 L 15.875 0 Z M 1.46875 0 "/></g></g></g><g fill="#000000" fill-opacity="1"><g transform="translate(524.558176, 68.56226)"><g><path d="M 27.5 0.953125 C 22.476562 0.953125 18.125 0.0507812 14.4375 -1.75 C 10.757812 -3.5625 7.910156 -6.160156 5.890625 -9.546875 C 3.867188 -12.929688 2.859375 -17.039062 2.859375 -21.875 C 2.859375 -26.601562 3.695312 -30.859375 5.375 -34.640625 C 7.0625 -38.421875 9.40625 -41.640625 12.40625 -44.296875 C 15.40625 -46.953125 18.914062 -48.972656 22.9375 -50.359375 C 26.957031 -51.753906 31.3125 -52.453125 36 -52.453125 C 41.019531 -52.453125 45.367188 -51.550781 49.046875 -49.75 C 52.734375 -47.945312 55.585938 -45.347656 57.609375 -41.953125 C 59.628906 -38.566406 60.640625 -34.457031 60.640625 -29.625 C 60.640625 -24.800781 59.8125 -20.5 58.15625 -16.71875 C 56.5 -12.9375 54.171875 -9.726562 51.171875 -7.09375 C 48.171875 -4.457031 44.660156 -2.457031 40.640625 -1.09375 C 36.617188 0.269531 32.238281 0.953125 27.5 0.953125 Z M 28.890625 -11.40625 C 32.210938 -11.40625 35.148438 -12.160156 37.703125 -13.671875 C 40.265625 -15.191406 42.289062 -17.265625 43.78125 -19.890625 C 45.269531 -22.523438 46.015625 -25.503906 46.015625 -28.828125 C 46.015625 -32.285156 45 -35.023438 42.96875 -37.046875 C 40.945312 -39.078125 38.132812 -40.09375 34.53125 -40.09375 C 31.363281 -40.09375 28.484375 -39.347656 25.890625 -37.859375 C 23.304688 -36.367188 21.257812 -34.332031 19.75 -31.75 C 18.238281 -29.164062 17.484375 -26.210938 17.484375 -22.890625 C 17.484375 -19.484375 18.503906 -16.71875 20.546875 -14.59375 C 22.597656 -12.46875 25.378906 -11.40625 28.890625 -11.40625 Z M 28.890625 -11.40625 "/></g></g></g><g fill="#000000" fill-opacity="1"><g transform="translate(586.665516, 68.56226)"><g><path d="M 20.5625 0.953125 C 16.21875 0.953125 12.265625 0.332031 8.703125 -0.90625 C 5.140625 -2.15625 1.992188 -4.535156 -0.734375 -8.046875 L 8.859375 -17.1875 C 10.222656 -15.582031 11.71875 -14.363281 13.34375 -13.53125 C 14.976562 -12.707031 16.613281 -12.144531 18.25 -11.84375 C 19.882812 -11.550781 21.410156 -11.40625 22.828125 -11.40625 C 25.410156 -11.40625 27.539062 -11.84375 29.21875 -12.71875 C 30.90625 -13.601562 31.75 -14.828125 31.75 -16.390625 C 31.75 -18.679688 29.140625 -20.09375 23.921875 -20.625 C 20.648438 -20.96875 17.632812 -21.566406 14.875 -22.421875 C 12.125 -23.273438 9.921875 -24.648438 8.265625 -26.546875 C 6.609375 -28.453125 5.78125 -31.085938 5.78125 -34.453125 C 5.78125 -37.578125 6.484375 -40.269531 7.890625 -42.53125 C 9.304688 -44.800781 11.195312 -46.664062 13.5625 -48.125 C 15.9375 -49.59375 18.5625 -50.679688 21.4375 -51.390625 C 24.3125 -52.097656 27.238281 -52.453125 30.21875 -52.453125 C 34.070312 -52.453125 37.457031 -51.988281 40.375 -51.0625 C 43.300781 -50.132812 45.9375 -48.570312 48.28125 -46.375 L 39.5 -37.390625 C 37.9375 -38.703125 36.21875 -39.578125 34.34375 -40.015625 C 32.46875 -40.453125 30.410156 -40.671875 28.171875 -40.671875 C 26.953125 -40.671875 25.742188 -40.523438 24.546875 -40.234375 C 23.347656 -39.941406 22.359375 -39.46875 21.578125 -38.8125 C 20.796875 -38.15625 20.40625 -37.289062 20.40625 -36.21875 C 20.40625 -34.800781 21.125 -33.820312 22.5625 -33.28125 C 24.007812 -32.75 25.851562 -32.382812 28.09375 -32.1875 C 30.382812 -31.945312 32.601562 -31.519531 34.75 -30.90625 C 36.894531 -30.300781 38.832031 -29.4375 40.5625 -28.3125 C 42.289062 -27.1875 43.664062 -25.769531 44.6875 -24.0625 C 45.71875 -22.363281 46.234375 -20.289062 46.234375 -17.84375 C 46.234375 -14.53125 45.535156 -11.675781 44.140625 -9.28125 C 42.753906 -6.894531 40.851562 -4.945312 38.4375 -3.4375 C 36.03125 -1.925781 33.289062 -0.816406 30.21875 -0.109375 C 27.144531 0.597656 23.925781 0.953125 20.5625 0.953125 Z M 20.5625 0.953125 "/></g></g></g></g></g><path fill="#000000" d="M 344.582031 346.535156 C 344.582031 357.277344 353.300781 366.011719 364.042969 366.011719 C 374.796875 366.011719 383.550781 357.277344 383.550781 346.535156 C 383.550781 335.777344 374.796875 327.03125 364.042969 327.03125 C 353.300781 327.023438 344.582031 335.777344 344.582031 346.535156 Z M 344.582031 346.535156 " fill-opacity="1" fill-rule="nonzero"/><path fill="#000000" d="M 466.136719 346.535156 C 466.136719 335.777344 457.398438 327.03125 446.671875 327.03125 C 435.910156 327.03125 427.144531 335.777344 427.144531 346.535156 C 427.144531 357.277344 435.910156 366.011719 446.671875 366.011719 C 457.398438 366.011719 466.136719 357.269531 466.136719 346.535156 Z M 466.136719 346.535156 " fill-opacity="1" fill-rule="nonzero"/><g clip-path="url(#5de2167459)"><path fill="#000000" d="M 131.886719 514.027344 C 168.445312 542.667969 249.328125 557.71875 284.304688 558.109375 C 284.527344 558.109375 284.730469 558.109375 284.953125 558.109375 C 317.90625 558.109375 350.636719 528.917969 352.523438 497.679688 C 353.117188 488.023438 350.988281 459.570312 310.507812 446.511719 L 258.296875 362.53125 C 262.992188 361.632812 267.378906 361.085938 271.390625 360.898438 C 301.519531 404.828125 352.027344 433.734375 409.1875 433.734375 C 418.492188 433.734375 426.050781 426.195312 426.050781 416.878906 C 426.050781 407.558594 418.492188 400.007812 409.1875 400.007812 C 344 400.007812 289.714844 352.941406 278.230469 291.003906 C 320.273438 303.183594 376.839844 311.742188 403.257812 311.742188 C 465.347656 311.742188 510.222656 301.328125 540.257812 290.472656 C 531.945312 335.75 500.40625 374.730469 456.46875 391.394531 C 447.765625 394.699219 443.394531 404.449219 446.683594 413.152344 C 449.253906 419.882812 455.660156 424.027344 462.441406 424.027344 C 464.4375 424.027344 466.460938 423.671875 468.429688 422.921875 C 500.859375 410.621094 527.925781 388.601562 546.824219 361 C 579.433594 363.46875 635.820312 388.535156 658.941406 411.527344 C 669.898438 422.410156 680.488281 441.339844 679.441406 459.082031 C 678.773438 470.347656 673.574219 479.640625 663.535156 487.488281 C 635.058594 509.8125 561.863281 524.074219 531.480469 524.40625 C 514.566406 524.574219 498.058594 508.113281 497.324219 495.664062 C 496.375 480.097656 526.617188 475.566406 535.894531 474.535156 C 561.753906 471.6875 579.117188 462.542969 599.152344 450.871094 C 607.191406 446.175781 609.914062 435.851562 605.214844 427.796875 C 600.507812 419.753906 590.21875 417.046875 582.167969 421.734375 C 562.003906 433.492188 550.007812 439.0625 532.207031 441.011719 C 465.867188 448.3125 462.988281 486.25 463.675781 497.6875 C 465.570312 528.921875 498.296875 558.117188 531.222656 558.117188 C 531.4375 558.117188 531.648438 558.117188 531.871094 558.117188 C 541.9375 558.003906 555.867188 556.632812 571.363281 554.117188 L 604.910156 618.382812 L 215.027344 618.382812 C 205.714844 618.382812 198.167969 625.929688 198.167969 635.25 C 198.167969 644.5625 205.714844 652.109375 215.027344 652.109375 L 632.710938 652.109375 C 638.605469 652.109375 644.066406 649.019531 647.140625 643.980469 C 650.191406 638.945312 650.371094 632.664062 647.660156 627.453125 L 605.738281 547.085938 C 635.496094 539.6875 665.691406 528.652344 684.324219 514.03125 C 701.910156 500.28125 711.875 481.953125 713.109375 461.066406 C 714.894531 430.941406 698.578125 403.367188 682.726562 387.597656 C 657.015625 362.066406 604.121094 336.984375 563.851562 329.40625 C 570.925781 312.078125 575.046875 293.460938 575.949219 274.257812 C 583.589844 269.84375 587.554688 266.707031 588.140625 266.242188 C 592.019531 263.113281 594.304688 258.417969 594.40625 253.441406 C 594.753906 233.109375 574.34375 185.507812 568.078125 171.40625 C 564.335938 162.984375 554.539062 159.128906 546.058594 162.742188 C 544.558594 163.382812 543.03125 164.015625 541.464844 164.65625 C 509.902344 123.769531 461.210938 99.644531 409.195312 99.644531 C 357.191406 99.644531 309.019531 123.527344 277.46875 164.109375 C 274.574219 163.148438 271.609375 162.183594 269.101562 161.21875 C 260.542969 157.914062 250.933594 162.054688 247.46875 170.53125 C 236.605469 196.898438 219.539062 244.195312 227.171875 264.703125 C 228.832031 269.1875 234.453125 273.617188 242.769531 277.859375 C 243.960938 295.847656 247.925781 313.050781 254.386719 329.039062 C 249.570312 329.882812 244.621094 330.929688 239.492188 332.257812 L 197.160156 264.171875 C 192.234375 256.253906 181.839844 253.847656 173.949219 258.75 C 166.046875 263.664062 163.632812 274.058594 168.539062 281.96875 L 206.644531 343.285156 C 178.074219 354.824219 150.097656 371.109375 133.503906 387.597656 C 117.644531 403.367188 101.332031 430.941406 103.105469 461.066406 C 104.339844 481.945312 114.285156 500.277344 131.886719 514.027344 Z M 409.1875 133.359375 C 446.359375 133.359375 481.257812 148.949219 506.28125 175.609375 C 484.460938 180.539062 455.695312 184.03125 415.066406 184.03125 L 408.457031 184 C 374.296875 183.6875 341.183594 179.433594 313.941406 173.734375 C 338.761719 148.210938 372.726562 133.359375 409.1875 133.359375 Z M 272.632812 198.820312 C 273.003906 199.105469 356.960938 218.859375 408.136719 217.707031 L 415.066406 217.738281 C 479.066406 217.738281 516.730469 209.472656 543.589844 199.90625 C 550.492188 216.769531 556.773438 234.242188 559.386719 244.847656 C 541.601562 255.140625 492.046875 279.046875 403.273438 278.015625 C 336.785156 277.246094 259.496094 249.375 258.832031 249.078125 C 259.585938 239.40625 265.074219 219.503906 272.632812 198.820312 Z M 157.253906 411.519531 C 171.535156 397.324219 198.511719 382.371094 224.742188 372.378906 L 264.796875 436.84375 C 255.472656 433.671875 246.253906 428.851562 234.042969 421.730469 C 226.003906 417.046875 215.6875 419.773438 210.980469 427.792969 C 206.300781 435.84375 209.003906 446.167969 217.058594 450.863281 C 237.082031 462.53125 254.445312 471.695312 280.308594 474.527344 C 289.59375 475.550781 319.808594 480.089844 318.871094 495.640625 C 318.128906 508.105469 300.726562 524.359375 284.683594 524.398438 C 254.324219 524.066406 181.144531 509.804688 152.660156 487.480469 C 142.621094 479.632812 137.421875 470.339844 136.746094 459.078125 C 135.703125 441.332031 146.296875 422.402344 157.253906 411.519531 Z M 157.253906 411.519531 " fill-opacity="1" fill-rule="nonzero"/></g><path fill="#000000" d="M 570.507812 147.789062 C 572.578125 148.632812 574.722656 149.023438 576.820312 149.023438 C 583.488281 149.023438 589.792969 145.039062 592.457031 138.484375 L 603.675781 110.726562 C 607.164062 102.09375 602.980469 92.269531 594.363281 88.789062 C 585.6875 85.273438 575.914062 89.484375 572.410156 98.09375 L 561.203125 125.851562 C 557.695312 134.472656 561.875 144.304688 570.507812 147.789062 Z M 570.507812 147.789062 " fill-opacity="1" fill-rule="nonzero"/><path fill="#000000" d="M 597.925781 176.882812 C 601.25 181.246094 606.265625 183.546875 611.351562 183.546875 C 614.910156 183.546875 618.484375 182.421875 621.546875 180.113281 L 653.890625 155.546875 C 661.300781 149.914062 662.746094 139.347656 657.109375 131.921875 C 651.5 124.503906 640.933594 123.066406 633.515625 128.691406 L 601.15625 153.253906 C 593.742188 158.882812 592.300781 169.460938 597.925781 176.882812 Z M 597.925781 176.882812 " fill-opacity="1" fill-rule="nonzero"/><path fill="#000000" d="M 608.375 208.910156 C 608.101562 218.210938 615.429688 225.972656 624.75 226.242188 L 661.699219 227.316406 C 661.863281 227.316406 662.03125 227.316406 662.1875 227.316406 C 671.269531 227.316406 678.761719 220.078125 679.015625 210.941406 C 679.292969 201.640625 671.96875 193.871094 662.652344 193.601562 L 625.699219 192.535156 C 616.164062 192.234375 608.652344 199.605469 608.375 208.910156 Z M 608.375 208.910156 " fill-opacity="1" fill-rule="nonzero"/><path stroke-linecap="round" transform="matrix(0.212492, -0.0343012, 0.0343012, 0.212492, 389.666293, 409.805447)" fill="none" stroke-linejoin="miter" d="M 72.853173 70.30674 C 143.302127 94.418345 246.143806 91.073806 381.363186 60.252314 " stroke="#000000" stroke-width="100" stroke-opacity="1" stroke-miterlimit="4"/><path stroke-linecap="round" transform="matrix(0.211542, -0.0397403, 0.0397403, 0.211542, 381.199554, 399.620976)" fill="none" stroke-linejoin="miter" d="M 65.764506 64.132634 C 164.773397 90.986576 283.515723 89.565219 421.977001 59.847374 " stroke="#000000" stroke-width="100" stroke-opacity="1" stroke-miterlimit="4"/><g clip-path="url(#e63486eec1)"><path stroke-linecap="round" transform="matrix(0.114022, -0.18256, 0.18256, 0.114022, 165.709742, 638.439252)" fill="none" stroke-linejoin="miter" d="M 76.503241 76.498805 L 580.96068 76.500978 " stroke="#000000" stroke-width="153" stroke-opacity="1" stroke-miterlimit="4"/></g><path stroke-linecap="round" transform="matrix(0.215242, 0.000000000000000601, -0.000000000000000601, 0.215242, 262.839425, 587.00495)" fill="none" stroke-linejoin="miter" d="M 31.997122 32.008472 L 619.83361 32.008472 " stroke="#000000" stroke-width="64" stroke-opacity="1" stroke-miterlimit="4"/><path stroke-linecap="round" transform="matrix(0.215242, 0.0000000000000003, -0.0000000000000003, 0.215242, 421.51059, 587.00495)" fill="none" stroke-linejoin="miter" d="M 32.000418 32.008472 L 619.836906 32.008472 " stroke="#000000" stroke-width="64" stroke-opacity="1" stroke-miterlimit="4"/><path stroke-linecap="round" transform="matrix(0.215242, 0, 0, 0.215242, 338.049714, 549.266536)" fill="none" stroke-linejoin="miter" d="M 32.000135 31.990941 L 239.015998 31.990941 " stroke="#000000" stroke-width="64" stroke-opacity="1" stroke-miterlimit="4"/><path stroke-linecap="round" transform="matrix(0.215242, 0, 0, 0.215242, 420.01815, 549.266536)" fill="none" stroke-linejoin="miter" d="M 32.001591 31.990941 L 239.017454 31.990941 " stroke="#000000" stroke-width="64" stroke-opacity="1" stroke-miterlimit="4"/><path stroke-linecap="round" transform="matrix(0.215242, 0, 0, 0.215242, 171.805044, 619.725637)" fill="none" stroke-linejoin="miter" d="M 76.492767 76.498722 L 2037.96217 76.498722 " stroke="#000000" stroke-width="153" stroke-opacity="1" stroke-miterlimit="4"/></g></g></svg>